# xmcd
#
# Track frame offsets:
#	150
#	21321
#	34512
#	53453
#	68067
#	84836
#	102848
#	124006
#	137191
#	155806
#	170412
#	187137
#
# Disc length: 2735 seconds
#
# Revision: 1
# Processed by: cddbd v1.5.2PL0 Copyright (c) Steve Scherf et al.
# Submitted via: audiograbber 1.83.01
#
DISCID=9a0aad0c
DTITLE=Gary Allen - CB20332
DYEAR=1900
DGENRE=country
TTITLE0=Loving You against My Will Vocal
TTITLE1=Man Of Me vocal
TTITLE2=One, the Vocal
TTITLE3=Right Where I Need To Be Vocal
TTITLE4=Runaway Vocal
TTITLE5=Smoke rings In the dark Vocal
TTITLE6=Loving You against My Will
TTITLE7=Man Of Me
TTITLE8=One, The
TTITLE9=Right Where I Need To Be
TTITLE10=Runaway
TTITLE11=Smoke Rings In the Dark
EXTD=
EXTT0=
EXTT1=
EXTT2=
EXTT3=
EXTT4=
EXTT5=
EXTT6=
EXTT7=
EXTT8=
EXTT9=
EXTT10=
EXTT11=
PLAYORDER=
